<?xml version="1.0" encoding="iso-8859-1"?>
<!-- Generator: Adobe Illustrator 18.0.0, SVG Export Plug-In . SVG Version: 6.00 Build 0)  -->
<!-- <!DOCTYPE svg PUBLIC "-//W3C//DTD SVG 1.1//EN" "http://www.w3.org/Graphics/SVG/1.1/DTD/svg11.dtd"> -->
<svg version="1.1" id="Capa_1" xmlns="http://www.w3.org/2000/svg" xmlns:xlink="http://www.w3.org/1999/xlink" x="0px" y="0px"
	 viewBox="0 0 244.305 244.305" style="enable-background:new 0 0 244.305 244.305;" xml:space="preserve">
<path style="fill:#FFFFFF;"  d="M0,180.665l63.64,63.64L244.305,63.64L180.666,0L0,180.665z M63.64,223.092l-42.427-42.427l9.016-9.016l10.607,10.607
	l10.606-10.606l-10.607-10.607l10.606-10.606l16.971,16.97L79.019,156.8l-16.971-16.97l10.606-10.606l10.606,10.606l10.606-10.606
	l-10.606-10.606l10.607-10.607l16.97,16.971l10.606-10.606l-16.97-16.971l10.607-10.607l10.606,10.607l10.607-10.606L125.688,76.19
	l10.607-10.606l16.97,16.97l10.606-10.606l-16.97-16.97l10.607-10.607l10.606,10.606l10.606-10.606l-10.606-10.607l12.551-12.551
	l42.426,42.427L63.64,223.092z M197.105,69.826c-2.538-2.538-2.538-6.653,0-9.192c2.539-2.538,6.654-2.538,9.192,0
	c2.539,2.539,2.539,6.654,0,9.192C203.76,72.365,199.645,72.365,197.105,69.826z"/>
<g>
</g>
<g>
</g>
<g>
</g>
<g>
</g>
<g>
</g>
<g>
</g>
<g>
</g>
<g>
</g>
<g>
</g>
<g>
</g>
<g>
</g>
<g>
</g>
<g>
</g>
<g>
</g>
<g>
</g>
</svg>
