<svg xmlns="http://www.w3.org/2000/svg" width="117" height="117" viewBox="0 0 117 117"><defs><style>.a,.b{fill:#383636;}.a{opacity:0;}</style></defs><circle class="a" cx="58.5" cy="58.5" r="58.5"/><path class="b" d="M2150.587,185c-.215-1.076-.438-2.2-.666-3.372-1.01-5.217-.444-9.27.155-13.56.787-5.644,1.6-11.48-1.526-19.925-1.967-5.436-6.93-10.141-9.005-10.215-.023,0-.046,0-.069,0a3.039,3.039,0,0,0-.973-1.2h0a33.847,33.847,0,0,0-17.285-5.5,25.205,25.205,0,0,0-19.441,7.451c-10.14,10.454-11.382,22.787-12.819,37.066q-.19,1.888-.392,3.829c-.773,7.342-.68,12.141.314,16.047.978,3.846,2.79,6.8,5.3,10.888.357.582.729,1.188,1.115,1.825,2.855,4.7,3.32,8.523,3.206,10.9a10.181,10.181,0,0,1-.932,4.062.76.76,0,0,0,.871,1.1,8.206,8.206,0,0,0,3.418-2.229c2.6-2.793,2.619-6.545,2.179-9.2a15.3,15.3,0,0,0-.588-2.348,11.677,11.677,0,0,1,1.769,7.582.76.76,0,0,0,1.446.419,20.285,20.285,0,0,0,1.183-8.909,7.712,7.712,0,0,1,.956,4.87.76.76,0,0,0,1.4.531c1.806-3.145,2.255-4.876,1.846-7.125a.76.76,0,0,0-.3-.478c-.107-.078-.3-.224-.566-.434,4.482,3.418,8.38,5.446,11.082,5.709.836.081,1.633.122,2.4.122a13.993,13.993,0,0,0,9.01-2.889c3.044-2.343,5.734-6.317,8.177-12.093-2.148,6.881-5.691,15.041-11.063,18.734a.76.76,0,0,0,.624,1.362c2.986-.782,6.248-3.136,9.184-6.629a34.032,34.032,0,0,0,2.065-2.728,34.834,34.834,0,0,1-4.674,7.756.759.759,0,0,0-.156.408,16.955,16.955,0,0,0,2.266,9.853.76.76,0,0,0,.636.344h.033a.76.76,0,0,0,.636-.4c.03-.055,3.011-5.621,7.919-15.569C2153.925,201.726,2152.669,195.432,2150.587,185Zm-28.173,26.273c-3.274-.318-8.9-3.819-15.058-9.364a22.647,22.647,0,0,1-4.978-6.628,24.182,24.182,0,0,1-1.624-6.734.755.755,0,0,0-.254-.5.742.742,0,0,0,.046-.346.756.756,0,0,0-.835-.672,5.262,5.262,0,0,1-3.279-1.214c0-.006,0-.011,0-.017,2.276-8.581,13.364-14.99,23.145-20.645,5.23-3.023,10.17-5.879,13.122-8.744a27.3,27.3,0,0,0,4.888-6.292,18.575,18.575,0,0,1-2.378,5.488.76.76,0,0,0,.049.872,10.23,10.23,0,0,0,3.189,2.322c2.616,1.453,5.843,3.248,7.323,9.118q.022.44.038.885a68.192,68.192,0,0,1-3.972,24.971C2136.2,209.374,2130.225,212.038,2122.414,211.277Z" transform="translate(-2061.815 -116.812)"/></svg>