<?xml version="1.0" encoding="utf-8"?>
<!-- Generator: Adobe Illustrator 21.0.0, SVG Export Plug-In . SVG Version: 6.00 Build 0)  -->
<svg version="1.1" id="Layer_1" xmlns="http://www.w3.org/2000/svg" xmlns:xlink="http://www.w3.org/1999/xlink" x="0px" y="0px"
	 viewBox="0 0 512 512" style="enable-background:new 0 0 512 512;" xml:space="preserve">
<style type="text/css">
	.st0{fill-rule:evenodd;clip-rule:evenodd;fill:#B3B3B3;}
	.st1{fill-rule:evenodd;clip-rule:evenodd;fill:#FFFFFF;}
	.st2{fill:#FFFFFF;}
	.st3{fill:#EC1C24;}
	.st4{fill:#1E88E5;}
	.st5{fill:#64A9DC;}
	.st6{fill:#65BC54;}
	.st7{fill-rule:evenodd;clip-rule:evenodd;fill:#8A0304;}
	.st8{fill-rule:evenodd;clip-rule:evenodd;fill:#EC1C24;}
</style>
<circle class="st6" cx="256" cy="253" r="256"/>
<path id="WhatsApp_2_" class="st2" d="M426,251.6c0,91.5-74.7,165.6-166.9,165.6c-29.3,0-56.8-7.5-80.7-20.6L86,426l30.1-88.9
	c-15.2-25-23.9-54.2-23.9-85.5C92.2,160.1,166.9,86,259.1,86C351.3,86,426,160.2,426,251.6z M259.1,112.4
	c-77.4,0-140.3,62.5-140.3,139.2c0,30.5,9.9,58.7,26.7,81.6L128,385l53.9-17.1c22.2,14.5,48.7,23,77.2,23
	c77.4,0,140.3-62.5,140.3-139.2S336.5,112.4,259.1,112.4z M343.4,289.8c-1-1.7-3.8-2.7-7.8-4.7c-4.1-2-24.2-11.9-28-13.2
	c-3.8-1.4-6.5-2-9.2,2c-2.7,4.1-10.6,13.2-13,15.9c-2.4,2.7-4.8,3.1-8.9,1c-4.1-2-17.3-6.3-32.9-20.1c-12.2-10.8-20.4-24-22.8-28.1
	c-2.4-4.1-0.3-6.3,1.8-8.3c1.8-1.8,4.1-4.7,6.1-7.1c2-2.4,2.7-4.1,4.1-6.8c1.4-2.7,0.7-5.1-0.3-7.1c-1-2-9.2-22-12.6-30.1
	c-3.4-8.1-6.8-6.8-9.2-6.8c-2.4,0-5.1-0.3-7.8-0.3c-2.7,0-7.2,1-10.9,5.1c-3.7,4.1-14.3,13.9-14.3,33.9c0,20,14.7,39.3,16.7,42
	c2,2.7,28.3,45,69.9,61.3c41.6,16.2,41.6,10.8,49.1,10.1c7.5-0.7,24.2-9.8,27.6-19.3C344.4,299.6,344.4,291.5,343.4,289.8
	L343.4,289.8z"/>
</svg>
