<?xml version="1.0" encoding="UTF-8"?>
<!DOCTYPE svg PUBLIC "-//W3C//DTD SVG 1.1//EN" "http://www.w3.org/Graphics/SVG/1.1/DTD/svg11.dtd">
<!-- Creator: CorelDRAW 2017 -->
<svg xmlns="http://www.w3.org/2000/svg" xml:space="preserve" width="67.7332mm" height="50.7998mm" version="1.1" style="shape-rendering:geometricPrecision; text-rendering:geometricPrecision; image-rendering:optimizeQuality; fill-rule:evenodd; clip-rule:evenodd"
viewBox="0 0 6773.32 5079.98"
 xmlns:xlink="http://www.w3.org/1999/xlink">
 <defs>
  <style type="text/css">
   <![CDATA[
    .fil0 {fill:none}
    .fil1 {fill:black}
   ]]>
  </style>
 </defs>
 <g id="Logotipo">
  <metadata id="CorelCorpID_0Corel-Layer"/>
  <g id="_2829422092000">
   <polygon class="fil0" points="16.44,4694.65 6756.88,4694.65 6756.88,385.33 16.44,385.33 "/>
  </g>
  <g id="_2829422090112">
   <path class="fil1" d="M6695.76 4084.74l0 48.53 -208.55 0 0 549.7 -56.93 0 0 -549.7 -207.71 0 0 -48.53 473.19 0zm-1137.58 0c26.72,0 51.07,3.76 72.8,11.32 21.81,7.53 40.57,18.72 56.13,33.54 15.66,14.77 27.73,32.78 36.08,54.04 8.39,21.24 12.55,45.25 12.55,72.04 0,26.81 -4.16,50.82 -12.55,72.1 -8.4,21.21 -20.42,39.22 -36.08,54.05 -15.6,14.77 -34.37,25.97 -56.13,33.48 -21.73,7.56 -46.08,11.33 -72.83,11.33l-208.6 0 0 256.33 -56.97 0 0 -598.23 265.6 0zm-12.59 293.41c39.65,0 71.8,-10.1 96.37,-30.25 24.6,-20.07 36.89,-50.86 36.89,-92.22 0,-41.35 -12.29,-72.13 -36.89,-92.19 -24.57,-20.17 -56.72,-30.22 -96.37,-30.22l-196.04 0 0 244.88 196.04 0zm-802.63 -293.41l0 48.53 -355.97 0 0 216.38 333.37 0 0 48.53 -333.37 0 0 236.26 360.16 0 0 48.53 -417.13 0 0 -598.23 412.94 0zm-1055.95 119.39c-11.46,-18.09 -25.4,-33.35 -41.89,-45.63 -16.43,-12.29 -34.62,-21.64 -54.43,-28.07 -19.8,-6.42 -40.66,-9.62 -62.44,-9.62 -39.64,0 -73.71,7.56 -102.17,22.6 -28.48,15.09 -51.81,35.06 -69.99,59.9 -18.12,24.84 -31.5,52.91 -40.21,84.2 -8.63,31.31 -12.98,63.41 -12.98,96.36 0,32.4 4.35,64.37 12.98,95.93 8.71,31.53 22.09,59.73 40.21,84.6 18.18,24.89 41.51,44.86 69.99,59.94 28.46,15.04 62.53,22.62 102.17,22.62 27.95,0 53.12,-5.03 75.42,-15.09 22.39,-10.11 41.63,-23.75 57.76,-41.06 16.22,-17.36 29.34,-37.6 39.35,-60.78 10.1,-23.12 16.58,-48.17 19.37,-74.93l56.88 0c-3.85,36.86 -12.46,70.05 -25.93,99.64 -13.41,29.65 -30.74,54.78 -51.98,75.43 -21.16,20.67 -46.12,36.54 -74.89,47.74 -28.82,11.14 -60.77,16.74 -95.98,16.74 -46.87,0 -88.1,-8.53 -123.54,-25.54 -35.46,-17.04 -64.92,-39.82 -88.37,-68.29 -23.45,-28.46 -41,-61.42 -52.74,-98.81 -11.68,-37.42 -17.57,-76.78 -17.57,-118.08 0,-41.33 5.89,-80.76 17.57,-118.14 11.74,-37.43 29.29,-70.48 52.74,-99.25 23.45,-28.77 52.91,-51.63 88.37,-68.73 35.44,-17 76.67,-25.48 123.54,-25.48 28.52,0 56.28,4.15 83.34,12.5 27.15,8.39 51.68,20.81 73.71,37.25 22.13,16.43 40.53,36.69 55.36,60.72 14.77,24.01 24.12,51.69 28.02,82.9l-56.92 0c-5.08,-22.86 -13.25,-43.42 -24.75,-61.57zm-1405.21 -119.39l348.34 506.07 1.75 0 0 -506.07 56.86 0 0 598.23 -63.61 0 -348.46 -506.02 -1.67 0 0 506.02 -56.86 0 0 -598.23 63.65 0zm-1163.77 181.05c11.71,-37.43 29.31,-70.48 52.77,-99.25 23.47,-28.77 52.93,-51.63 88.39,-68.73 35.49,-17 76.67,-25.48 123.61,-25.48 46.91,0 87.97,8.48 123.16,25.48 35.2,17.1 64.51,39.96 87.97,68.73 23.45,28.77 41.06,61.82 52.83,99.25 11.72,37.38 17.61,76.81 17.61,118.14 0,41.3 -5.89,80.66 -17.61,118.08 -11.77,37.39 -29.38,70.35 -52.83,98.81 -23.46,28.47 -52.77,51.25 -87.97,68.29 -35.19,17.01 -76.25,25.54 -123.16,25.54 -46.94,0 -88.12,-8.53 -123.61,-25.54 -35.46,-17.04 -64.92,-39.82 -88.39,-68.29 -23.46,-28.46 -41.06,-61.42 -52.77,-98.81 -11.74,-37.42 -17.61,-76.78 -17.61,-118.08 0,-41.33 5.87,-80.76 17.61,-118.14zm52.28 214.01c8.65,31.53 22.08,59.73 40.21,84.6 18.18,24.89 41.51,44.86 70.03,59.94 28.47,15.04 62.57,22.62 102.25,22.62 39.65,0 73.65,-7.58 101.85,-22.62 28.2,-15.08 51.4,-35.05 69.59,-59.94 18.16,-24.87 31.53,-53.07 40.24,-84.6 8.63,-31.56 12.98,-63.53 12.98,-95.93 0,-32.95 -4.35,-65.05 -12.98,-96.36 -8.71,-31.29 -22.08,-59.36 -40.24,-84.2 -18.19,-24.84 -41.39,-44.81 -69.59,-59.9 -28.2,-15.04 -62.2,-22.6 -101.85,-22.6 -39.68,0 -73.78,7.56 -102.25,22.6 -28.52,15.09 -51.85,35.06 -70.03,59.9 -18.13,24.84 -31.56,52.91 -40.21,84.2 -8.66,31.31 -13.02,63.41 -13.02,96.36 0,32.4 4.36,64.37 13.02,95.93zm-680.93 -275.67c-11.46,-18.09 -25.42,-33.35 -41.91,-45.63 -16.49,-12.29 -34.61,-21.64 -54.43,-28.07 -19.85,-6.42 -40.62,-9.62 -62.41,-9.62 -39.69,0 -73.74,7.56 -102.23,22.6 -28.46,15.09 -51.79,35.06 -69.92,59.9 -18.18,24.84 -31.58,52.91 -40.21,84.2 -8.68,31.31 -12.98,63.41 -12.98,96.36 0,32.4 4.3,64.37 12.98,95.93 8.63,31.53 22.03,59.73 40.21,84.6 18.13,24.89 41.46,44.86 69.92,59.94 28.49,15.04 62.54,22.62 102.23,22.62 27.93,0 53.04,-5.03 75.37,-15.09 22.35,-10.11 41.6,-23.75 57.8,-41.06 16.22,-17.36 29.33,-37.6 39.42,-60.78 10,-23.12 16.45,-48.17 19.23,-74.93l56.99 0c-3.93,36.86 -12.57,70.05 -25.95,99.64 -13.44,29.65 -30.75,54.78 -51.98,75.43 -21.22,20.67 -46.22,36.54 -74.95,47.74 -28.77,11.14 -60.77,16.74 -95.93,16.74 -46.95,0 -88.13,-8.53 -123.59,-25.54 -35.46,-17.04 -64.9,-39.82 -88.38,-68.29 -23.41,-28.46 -41,-61.42 -52.73,-98.81 -11.68,-37.42 -17.55,-76.78 -17.55,-118.08 0,-41.33 5.87,-80.76 17.55,-118.14 11.73,-37.43 29.32,-70.48 52.73,-99.25 23.48,-28.77 52.92,-51.63 88.38,-68.73 35.46,-17 76.64,-25.48 123.59,-25.48 28.46,0 56.27,4.15 83.35,12.5 27.08,8.39 51.65,20.81 73.73,37.25 22.05,16.43 40.47,36.69 55.28,60.72 14.79,24.01 24.14,51.69 28.04,82.9l-56.96 0c-5,-22.86 -13.25,-43.42 -24.69,-61.57z"/>
   <g>
    <path class="fil1" d="M16.44 3573.29c373.34,0 503.98,-74.67 503.98,-457.32l0 -2118.51c0,-382.64 -130.64,-457.31 -503.98,-457.31l0 -93.3 1236.64 0c587.92,0 1418.55,56 1418.55,839.96 0,676.62 -648.65,919.29 -1227.25,919.29l-420 0 0 909.87c0,382.65 130.65,457.32 503.99,457.32l0 93.35 -1511.93 0 0 -93.35zm1007.94 -1539.85l196.02 0c489.96,0 881.91,-182.01 881.91,-732.63 0,-434.03 -289.3,-681.31 -713.93,-681.31 -349.99,0 -364,18.67 -364,349.99l0 1063.95z"/>
    <path class="fil1" d="M3042.45 3558.43c270.68,-14.04 336,-121.33 471.33,-405.99l1325.28 -2767.11 116.6 0 1301.98 2781.18c98.01,209.91 223.98,391.92 499.24,391.92l0 93.34 -1376.51 0 0 -93.34 46.65 0c266,0 326.6,-111.97 326.6,-200.64 0,-158.67 -242.66,-592.64 -321.96,-765.29l-1404.63 0c-51.33,153.98 -289.34,639.29 -289.34,769.97 0,97.93 42.09,195.96 335.95,195.96l37.46 0 0 93.34 -1068.65 0 0 -93.34zm1077.88 -1161.9l1222.62 0 -615.9 -1339.24 -606.72 1339.24z"/>
    <path class="fil1" d="M2005.85 3421.4c0,-153.99 121.32,-275.26 275.29,-275.26 154,0 275.34,121.27 275.34,275.26 0,154.03 -121.34,275.32 -275.34,275.32 -153.97,0 -275.29,-121.29 -275.29,-275.32z"/>
   </g>
  </g>
 </g>
</svg>
